<svg width="344" height="50" viewBox="0 0 344 50" fill="none" xmlns="http://www.w3.org/2000/svg">
<path d="M68.775 33.125C65.5917 33.125 63.125 32.3667 61.375 30.85C59.625 29.3167 58.75 27.05 58.75 24.05C58.75 21.0667 59.625 18.8167 61.375 17.3C63.125 15.7667 65.65 15 68.95 15H73.45C76.75 15 79.275 15.7667 81.025 17.3C82.775 18.8167 83.65 21.0667 83.65 24.05C83.65 27.05 82.775 29.3167 81.025 30.85C79.275 32.3667 76.7917 33.125 73.575 33.125H68.775ZM69.225 18.25C67.375 18.25 65.9333 18.5833 64.9 19.25C63.8667 19.9167 63.2167 20.975 62.95 22.425H79.45C79.1833 20.975 78.5333 19.9167 77.5 19.25C76.4667 18.5833 75.025 18.25 73.175 18.25H69.225ZM69.3 29.875H73.175C75.0417 29.875 76.4833 29.5417 77.5 28.875C78.5333 28.2083 79.1833 27.1417 79.45 25.675H62.95C63.2167 27.1417 63.8667 28.2083 64.9 28.875C65.9333 29.5417 67.4 29.875 69.3 29.875ZM86.1416 33V15.125H105.742V18.375H90.1416V22.325H104.292V25.575H90.1416V29.75H105.742V33H86.1416ZM108.48 33V29.75H121.755C123.339 29.75 124.13 29.075 124.13 27.725C124.13 26.375 123.339 25.7 121.755 25.7H108.48V15.15H127.28V18.375H112.355V22.45H122.53C124.264 22.45 125.605 22.9167 126.555 23.85C127.522 24.7833 128.005 26.075 128.005 27.725C128.005 29.375 127.522 30.6667 126.555 31.6C125.605 32.5333 124.264 33 122.53 33H108.48ZM129.502 33V27.7C129.502 26.0333 129.969 24.7417 130.902 23.825C131.835 22.9083 133.194 22.45 134.977 22.45H143.202C144.785 22.45 145.577 21.775 145.577 20.425C145.577 19.075 144.785 18.4 143.202 18.4H129.902V15.15H143.977C145.71 15.15 147.052 15.6167 148.002 16.55C148.969 17.4833 149.452 18.775 149.452 20.425C149.452 22.075 148.969 23.3667 148.002 24.3C147.052 25.2333 145.71 25.7 143.977 25.7H135.527C134.81 25.7 134.269 25.8833 133.902 26.25C133.552 26.6 133.377 27.1 133.377 27.75V29.775H148.977V33H129.502ZM160.702 33V15.125H164.702V29.75H177.777V33H160.702ZM179.907 33V20.125H183.532V33H179.907ZM179.882 18V15.175H183.557V18H179.882ZM186.279 33V15.125H189.904V33H186.279ZM186.904 33V30.125H195.529C196.613 30.125 197.438 29.8333 198.004 29.25C198.588 28.65 198.879 27.7583 198.879 26.575C198.879 25.375 198.588 24.4833 198.004 23.9C197.438 23.3 196.613 23 195.529 23H187.154V20.125H195.529C197.763 20.125 199.504 20.675 200.754 21.775C202.004 22.875 202.629 24.475 202.629 26.575C202.629 28.6583 202.004 30.25 200.754 31.35C199.504 32.45 197.763 33 195.529 33H186.904ZM204.883 33V20.125H214.733C216.183 20.125 217.249 20.4917 217.933 21.225C218.616 21.9417 218.958 22.8917 218.958 24.075V26.75H215.283V24.525C215.283 23.525 214.783 23.025 213.783 23.025H208.558V33H204.883ZM224.372 33C223.022 33 221.989 32.6583 221.272 31.975C220.556 31.2917 220.197 30.3167 220.197 29.05C220.197 27.8 220.556 26.8333 221.272 26.15C221.989 25.4667 223.022 25.125 224.372 25.125H233.972V24.525C233.972 23.5083 233.472 23 232.472 23H221.872V20.125H233.422C234.939 20.125 236.014 20.475 236.647 21.175C237.281 21.8583 237.597 22.825 237.597 24.075V33H224.372ZM225.022 30.125H233.972V28H225.022C224.706 28 224.456 28.1 224.272 28.3C224.106 28.4833 224.022 28.7333 224.022 29.05C224.022 29.3667 224.106 29.625 224.272 29.825C224.456 30.025 224.706 30.125 225.022 30.125ZM240.356 33V20.125H250.206C251.656 20.125 252.723 20.4917 253.406 21.225C254.09 21.9417 254.431 22.8917 254.431 24.075V26.75H250.756V24.525C250.756 23.525 250.256 23.025 249.256 23.025H244.031V33H240.356ZM259.321 38.625V35.75H266.871C267.871 35.75 268.371 35.2417 268.371 34.225V33H260.646C259.179 33 258.104 32.6333 257.421 31.9C256.754 31.1667 256.421 30.2167 256.421 29.05V20.125H260.046V28.625C260.046 29.625 260.546 30.125 261.546 30.125H268.246V20.125H271.996V34.675C271.996 35.8583 271.654 36.8083 270.971 37.525C270.288 38.2583 269.221 38.625 267.771 38.625H259.321Z" fill="url(#paint0_linear_110_23)"/>
<path d="M274.881 33V29.425H278.881V33H274.881Z" fill="url(#paint1_linear_110_23)"/>
<path d="M281.197 33.1V30.8H290.997C291.557 30.8 291.837 30.4867 291.837 29.86C291.837 29.2467 291.557 28.94 290.997 28.94H284.657C283.47 28.94 282.57 28.6733 281.957 28.14C281.343 27.5933 281.037 26.8133 281.037 25.8C281.037 24.7733 281.343 23.9867 281.957 23.44C282.583 22.88 283.483 22.6 284.657 22.6H293.777V24.9H284.797C284.223 24.9 283.937 25.18 283.937 25.74C283.937 26.02 284.017 26.24 284.177 26.4C284.337 26.56 284.543 26.64 284.797 26.64H291.517C292.557 26.64 293.35 26.9133 293.897 27.46C294.457 27.9933 294.737 28.7733 294.737 29.8C294.737 30.84 294.457 31.6533 293.897 32.24C293.337 32.8133 292.543 33.1 291.517 33.1H281.197ZM299.719 33C298.546 33 297.686 32.7067 297.139 32.12C296.606 31.5333 296.339 30.7733 296.339 29.84V22.7H299.239V29.5C299.239 30.3 299.639 30.7 300.439 30.7H304.599C305.399 30.7 305.799 30.3 305.799 29.5V22.7H308.699V29.84C308.699 30.7733 308.426 31.5333 307.879 32.12C307.346 32.7067 306.492 33 305.319 33H299.719ZM310.794 33V22.7H319.774C320.948 22.7 321.801 22.9933 322.334 23.58C322.881 24.1533 323.154 24.9133 323.154 25.86V33H320.254V26.2C320.254 25.4 319.854 25 319.054 25H313.694V33H310.794Z" fill="#555555"/>
<path d="M45.2185 10.3872C44.8968 7.41954 42.408 5.09088 39.3614 5.09088H24.0968L12.3263 0.350213C11.7516 0.120637 11.1828 0 10.6388 0C8.59017 0 7.20979 1.60191 7.20979 3.99345V6.20805C5.87182 7.16657 4.96741 8.66539 4.7817 10.3865C4.07104 11.4649 3.65283 12.7488 3.65283 14.1357V43.1676C3.65283 46.9402 6.71189 49.9993 10.4838 49.9993H39.5164C43.289 49.9993 46.3473 46.9402 46.3473 43.1676V14.1357C46.3473 12.7495 45.9284 11.4649 45.2185 10.3872ZM8.06376 5.70796V3.99345C8.06376 2.08592 9.07418 0.853963 10.6388 0.853963C11.0746 0.853963 11.5344 0.951204 12.009 1.1413L21.8098 5.09088L23.9279 5.94484L24.5735 6.20513V6.79881V7.30475V43.9521H24.0938L12.327 39.2092C9.97713 38.2617 8.06449 35.3466 8.06449 32.7116V7.7661V7.70614V6.67598V5.70796H8.06376ZM28.5421 7.30694V11.2894L30.2032 9.89223L31.8636 11.2894V7.30694V6.80246H39.3643C40.3967 6.80246 41.3245 7.18996 42.0549 7.80411C42.979 8.58058 43.5778 9.7248 43.5778 11.0196V39.7364C43.5778 42.0614 41.6915 43.9543 39.3643 43.9543H25.4304V7.30694V6.80246H28.5457L28.5421 7.30694ZM22.0606 18.0824L16.7774 15.9511V15.0833L22.0606 17.2153V18.0824ZM22.0606 21.3922L16.7774 19.261V18.3924L22.0606 20.5207V21.3922ZM22.0606 24.7306L11.4928 20.4717V19.6039L22.0606 23.8635V24.7306V24.7306ZM22.0606 28.039L11.4928 23.7801V22.9086L22.0606 27.1674V28.039ZM22.0606 31.3773L11.4928 27.1177V26.2506L22.0606 30.5102V31.3773V31.3773ZM12.3972 17.749L12.6714 16.9053L14.263 17.5457L14.5482 18.6176L15.011 18.8033L15.4753 18.989L13.994 13.6963L13.4844 13.4909L12.9777 13.2883L11.4935 17.382L11.9497 17.5596L12.3972 17.749ZM13.4705 14.5371V14.5342H13.4719L13.4705 14.5371L14.0276 16.6442L12.9156 16.1917L13.4705 14.5371ZM35.3562 31.8811C35.0799 31.8811 34.8042 31.8811 34.5278 31.8811C34.5278 30.6966 34.5278 29.5158 34.5278 28.3321C34.8115 28.3321 35.0974 28.3321 35.3811 28.3321C35.3635 29.5107 35.414 30.7434 35.3562 31.8811ZM37.5584 27.5264C38.1806 28.5054 38.7275 29.5656 39.3329 30.557C39.0945 30.6871 38.8605 30.8143 38.639 30.9606C37.9854 30.0028 37.4538 28.9295 36.82 27.9519C37.0327 27.775 37.3317 27.6851 37.5584 27.5264ZM32.3264 27.5264C32.575 27.6412 32.7856 27.8028 33.0466 27.9081C32.4982 28.9507 31.8863 29.937 31.3138 30.9635C31.0455 30.8684 30.8415 30.7032 30.6002 30.5782C31.0974 29.4829 31.7627 28.5559 32.3264 27.5264ZM41.7127 28.1983C40.6935 27.6215 39.6451 27.0812 38.6573 26.4677C38.7794 26.1936 38.9059 25.9238 39.0594 25.684C40.0633 26.2872 41.0956 26.864 42.09 27.4818C41.9847 27.7414 41.8275 27.9468 41.7127 28.1983ZM27.77 27.4584C28.8155 26.8845 29.8274 26.2813 30.8451 25.684C30.9621 25.9538 31.112 26.1811 31.2524 26.4246C30.3034 27.0812 29.2147 27.5937 28.2218 28.1991C28.0639 27.9585 27.895 27.7333 27.77 27.4584ZM35.1778 27.2544C36.6269 27.1506 37.7149 26.2067 38.1638 25.0325C38.6924 23.6529 38.1916 22.1043 37.2462 21.2599C37.051 21.0873 36.6942 20.9609 36.6174 20.724C36.5121 20.3935 36.5962 19.9402 36.5962 19.5556C36.5962 19.1418 36.5962 18.7682 36.5962 18.3412C35.6823 18.0414 34.223 18.0414 33.3178 18.3412C33.3178 18.7324 33.3178 19.1381 33.3178 19.5556C33.3178 19.9468 33.4114 20.4571 33.293 20.7664C33.2447 20.8965 33.0692 20.9799 32.9574 21.0603C32.1553 21.6174 31.5112 22.6454 31.5178 23.8664C31.5295 25.8236 33.1416 27.3985 35.1778 27.2544ZM33.2506 21.893C33.4743 21.7066 33.7799 21.5984 33.9678 21.3081C34.2193 20.917 34.1674 20.3708 34.1674 19.6916C34.6141 19.5578 35.2612 19.5944 35.7379 19.6675C35.7064 20.4125 35.7225 21.1049 36.0567 21.4843C36.2204 21.6722 36.5319 21.7892 36.7527 21.9815C37.2813 22.4443 37.5833 23.2069 37.5357 23.9797C37.4597 25.2438 36.4931 26.2879 35.1771 26.4012C34.2815 26.4809 33.5299 26.0781 33.0882 25.6174C32.7073 25.2212 32.3739 24.588 32.371 23.8671C32.3681 22.9393 32.7666 22.2922 33.2506 21.893Z" fill="url(#paint2_linear_110_23)"/>
<defs>
<linearGradient id="paint0_linear_110_23" x1="201" y1="10" x2="201" y2="40" gradientUnits="userSpaceOnUse">
<stop/>
<stop offset="0.0001" stop-opacity="0.984375"/>
<stop offset="0.9999" stop-opacity="0.76"/>
<stop offset="1" stop-opacity="0"/>
</linearGradient>
<linearGradient id="paint1_linear_110_23" x1="201" y1="10" x2="201" y2="40" gradientUnits="userSpaceOnUse">
<stop/>
<stop offset="0.0001" stop-opacity="0.984375"/>
<stop offset="1" stop-opacity="0"/>
<stop offset="1"/>
</linearGradient>
<linearGradient id="paint2_linear_110_23" x1="44.5" y1="24" x2="-1.5" y2="23" gradientUnits="userSpaceOnUse">
<stop offset="0.166667" stop-color="#525252"/>
<stop offset="1" stop-opacity="0"/>
</linearGradient>
</defs>
</svg>
